<svg height="38" width="32" xmlns="http://www.w3.org/2000/svg"><path d="M16 37.65c8.827 0 15.986-7.159 15.986-15.986C23.158 21.664 16 28.822 16 37.65zM4.641 16.78a4.442 4.442 0 0 0 4.44 4.441c.932 0 1.803-.294 2.513-.782l-.036.337c0 2.451 1.99 4.441 4.441 4.441s4.44-1.99 4.44-4.441l-.036-.337a4.396 4.396 0 0 0 2.514.782c2.451 0 4.44-1.99 4.44-4.441a4.418 4.418 0 0 0-2.54-3.997 4.434 4.434 0 0 0 2.54-3.997 4.441 4.441 0 0 0-6.954-3.659l.037-.337a4.441 4.441 0 0 0-8.881 0l.036.337a4.392 4.392 0 0 0-2.513-.781 4.442 4.442 0 0 0-4.44 4.44 4.42 4.42 0 0 0 2.54 3.997 4.42 4.42 0 0 0-2.541 3.997zM16 8.343c2.451 0 4.44 1.989 4.44 4.44a4.441 4.441 0 0 1-8.881 0c0-2.451 1.99-4.44 4.441-4.44zM.014 21.664C.014 30.491 7.172 37.65 16 37.65 16 28.822 8.842 21.664.014 21.664z" fill="#63d1bb" fill-rule="evenodd"/></svg>